<?xml version="1.0" encoding="UTF-8" standalone="no"?>
<!-- Created with Inkscape (http://www.inkscape.org/) -->

<svg
   xmlns:osb="http://www.openswatchbook.org/uri/2009/osb"
   xmlns:dc="http://purl.org/dc/elements/1.1/"
   xmlns:cc="http://creativecommons.org/ns#"
   xmlns:rdf="http://www.w3.org/1999/02/22-rdf-syntax-ns#"
   xmlns:svg="http://www.w3.org/2000/svg"
   xmlns="http://www.w3.org/2000/svg"
   xmlns:xlink="http://www.w3.org/1999/xlink"
   xmlns:sodipodi="http://sodipodi.sourceforge.net/DTD/sodipodi-0.dtd"
   xmlns:inkscape="http://www.inkscape.org/namespaces/inkscape"
   width="218.04604mm"
   height="239.36986mm"
   viewBox="0 0 218.04604 239.36986"
   version="1.1"
   id="svg8"
   inkscape:version="0.92.1 r15371"
   sodipodi:docname="evergreenwetlands.svg">
  <defs
     id="defs2">
    <linearGradient
       id="linearGradient4510">
      <stop
         id="stop4508"
         offset="0"
         style="stop-color:#315b0f;stop-opacity:1;" />
    </linearGradient>
    <inkscape:path-effect
       effect="mirror_symmetry"
       start_point="55.11747,145.92141"
       end_point="55.118884,156.02028"
       center_point="55.118177,150.97084"
       id="path-effect5169"
       is_visible="true"
       mode="free"
       discard_orig_path="false"
       fuse_paths="false"
       oposite_fuse="false" />
    <inkscape:path-effect
       oposite_fuse="false"
       fuse_paths="false"
       discard_orig_path="false"
       mode="free"
       is_visible="true"
       id="path-effect5147"
       center_point="60.552763,148.90957"
       end_point="60.553553,154.55432"
       start_point="60.551973,143.26483"
       effect="mirror_symmetry" />
    <inkscape:path-effect
       oposite_fuse="false"
       fuse_paths="true"
       discard_orig_path="false"
       mode="X"
       is_visible="true"
       id="path-effect5145"
       center_point="63.044641,148.5"
       end_point="63.044641,169.24404"
       start_point="63.044641,144.10862"
       effect="mirror_symmetry" />
    <inkscape:path-effect
       oposite_fuse="false"
       fuse_paths="false"
       discard_orig_path="false"
       mode="X"
       is_visible="true"
       id="path-effect5141"
       center_point="36.39732,156.67633"
       end_point="36.39732,169.24404"
       start_point="36.39732,144.10862"
       effect="mirror_symmetry" />
    <inkscape:path-effect
       effect="mirror_symmetry"
       start_point="55.11747,145.92141"
       end_point="55.118884,156.02028"
       center_point="55.118177,150.97084"
       id="path-effect5169-0"
       is_visible="true"
       mode="free"
       discard_orig_path="false"
       fuse_paths="false"
       oposite_fuse="false" />
    <inkscape:path-effect
       oposite_fuse="false"
       fuse_paths="false"
       discard_orig_path="false"
       mode="free"
       is_visible="true"
       id="path-effect5147-2"
       center_point="60.552763,148.90957"
       end_point="60.553553,154.55432"
       start_point="60.551973,143.26483"
       effect="mirror_symmetry" />
    <inkscape:path-effect
       oposite_fuse="false"
       fuse_paths="true"
       discard_orig_path="false"
       mode="X"
       is_visible="true"
       id="path-effect5145-0"
       center_point="63.044641,148.5"
       end_point="63.044641,169.24404"
       start_point="63.044641,144.10862"
       effect="mirror_symmetry" />
    <inkscape:path-effect
       oposite_fuse="false"
       fuse_paths="false"
       discard_orig_path="false"
       mode="X"
       is_visible="true"
       id="path-effect5141-7"
       center_point="36.39732,156.67633"
       end_point="36.39732,169.24404"
       start_point="36.39732,144.10862"
       effect="mirror_symmetry" />
    <linearGradient
       gradientTransform="matrix(0.85279031,0,0,1,9.1246634,0)"
       id="linearGradient4496"
       osb:paint="solid">
      <stop
         style="stop-color:#315b0f;stop-opacity:1;"
         offset="0"
         id="stop4494" />
    </linearGradient>
    <inkscape:path-effect
       effect="mirror_symmetry"
       start_point="105,0"
       end_point="105,297"
       center_point="105,148.5"
       id="path-effect4487"
       is_visible="true"
       mode="vertical"
       discard_orig_path="false"
       fuse_paths="false"
       oposite_fuse="false" />
    <inkscape:path-effect
       oposite_fuse="false"
       fuse_paths="false"
       discard_orig_path="false"
       mode="vertical"
       is_visible="true"
       id="path-effect4487-0"
       center_point="105,148.5"
       end_point="105,297"
       start_point="105,0"
       effect="mirror_symmetry" />
    <linearGradient
       gradientUnits="userSpaceOnUse"
       y2="129.0394"
       x2="120.48524"
       y1="129.0394"
       x1="-24.136406"
       id="linearGradient4498"
       xlink:href="#linearGradient4496"
       inkscape:collect="always" />
    <linearGradient
       inkscape:collect="always"
       xlink:href="#linearGradient4496"
       id="linearGradient4574"
       gradientUnits="userSpaceOnUse"
       x1="-24.136406"
       y1="129.0394"
       x2="120.48524"
       y2="129.0394" />
    <linearGradient
       inkscape:collect="always"
       xlink:href="#linearGradient4510"
       id="linearGradient4987"
       gradientUnits="userSpaceOnUse"
       gradientTransform="matrix(0.85279031,0,0,1,9.1246634,0)"
       x1="32.986103"
       y1="168.20461"
       x2="87.752121"
       y2="168.20461" />
    <linearGradient
       inkscape:collect="always"
       xlink:href="#linearGradient4510"
       id="linearGradient4989"
       gradientUnits="userSpaceOnUse"
       x1="58.003613"
       y1="152.12766"
       x2="64.77832"
       y2="152.12766" />
    <linearGradient
       inkscape:collect="always"
       xlink:href="#linearGradient4510"
       id="linearGradient4991"
       gradientUnits="userSpaceOnUse"
       x1="58.003613"
       y1="152.12766"
       x2="64.77832"
       y2="152.12766" />
    <linearGradient
       inkscape:collect="always"
       xlink:href="#linearGradient4510"
       id="linearGradient4993"
       gradientUnits="userSpaceOnUse"
       x1="58.003613"
       y1="152.12766"
       x2="64.77832"
       y2="152.12766" />
    <linearGradient
       inkscape:collect="always"
       xlink:href="#linearGradient4510"
       id="linearGradient4995"
       gradientUnits="userSpaceOnUse"
       x1="58.003613"
       y1="152.12766"
       x2="64.77832"
       y2="152.12766" />
    <linearGradient
       inkscape:collect="always"
       xlink:href="#linearGradient4510"
       id="linearGradient4997"
       gradientUnits="userSpaceOnUse"
       x1="58.003613"
       y1="152.12766"
       x2="64.77832"
       y2="152.12766" />
    <linearGradient
       inkscape:collect="always"
       xlink:href="#linearGradient4510"
       id="linearGradient4999"
       gradientUnits="userSpaceOnUse"
       x1="58.003613"
       y1="152.12766"
       x2="64.77832"
       y2="152.12766" />
    <linearGradient
       inkscape:collect="always"
       xlink:href="#linearGradient4510"
       id="linearGradient5001"
       gradientUnits="userSpaceOnUse"
       x1="58.003613"
       y1="152.12766"
       x2="64.77832"
       y2="152.12766" />
    <linearGradient
       inkscape:collect="always"
       xlink:href="#linearGradient4510"
       id="linearGradient5003"
       gradientUnits="userSpaceOnUse"
       x1="58.003613"
       y1="152.12766"
       x2="64.77832"
       y2="152.12766" />
    <linearGradient
       inkscape:collect="always"
       xlink:href="#linearGradient4510"
       id="linearGradient5005"
       gradientUnits="userSpaceOnUse"
       x1="58.003613"
       y1="152.12766"
       x2="64.77832"
       y2="152.12766" />
  </defs>
  <sodipodi:namedview
     id="base"
     pagecolor="#ffffff"
     bordercolor="#666666"
     borderopacity="1.0"
     inkscape:pageopacity="0.0"
     inkscape:pageshadow="2"
     inkscape:zoom="0.35"
     inkscape:cx="-116.55804"
     inkscape:cy="408.31502"
     inkscape:document-units="mm"
     inkscape:current-layer="layer1"
     showgrid="false"
     fit-margin-top="0"
     fit-margin-left="0"
     fit-margin-right="0"
     fit-margin-bottom="0"
     inkscape:window-width="1920"
     inkscape:window-height="1001"
     inkscape:window-x="-9"
     inkscape:window-y="-9"
     inkscape:window-maximized="1" />
  <metadata
     id="metadata5">
    <rdf:RDF>
      <cc:Work
         rdf:about="">
        <dc:format>image/svg+xml</dc:format>
        <dc:type
           rdf:resource="http://purl.org/dc/dcmitype/StillImage" />
        <dc:title></dc:title>
      </cc:Work>
    </rdf:RDF>
  </metadata>
  <g
     inkscape:label="Layer 1"
     inkscape:groupmode="layer"
     id="layer1"
     transform="translate(-12.318482,-17.49683)">
    <g
       transform="matrix(1.8359482,0,0,1.8359482,-1.7450541,-53.267855)"
       id="layer1-7"
       inkscape:label="Layer 1">
      <path
         sodipodi:nodetypes="ccc"
         inkscape:connector-curvature="0"
         id="path5091"
         d="m 37.928032,168.2046 h 8.071279 37.286373"
         style="fill:url(#linearGradient4496);fill-rule:evenodd;stroke:url(#linearGradient4987);stroke-width:1.43737924;stroke-linecap:round;stroke-linejoin:round;stroke-miterlimit:4;stroke-dasharray:none;stroke-opacity:1" />
      <path
         sodipodi:nodetypes="ccc"
         inkscape:connector-curvature="0"
         id="path5093"
         d="m 58.247908,168.21068 c 0,0 2.11257,-27.97097 6.286417,-32.16958 0,0 -4.543036,27.40878 -2.521333,32.16958"
         style="fill:url(#linearGradient4496);fill-opacity:1;fill-rule:evenodd;stroke:url(#linearGradient4989);stroke-width:0.48801941;stroke-linecap:round;stroke-linejoin:round;stroke-miterlimit:4;stroke-dasharray:none;stroke-opacity:1" />
      <use
         style="fill:url(#linearGradient4496);stroke:url(#linearGradient4991);stroke-width:1.76388884;stroke-linecap:round;stroke-linejoin:round;stroke-miterlimit:4;stroke-dasharray:none;stroke-opacity:1"
         height="100%"
         width="100%"
         transform="matrix(0.78111078,0,0,0.78111078,18.078648,36.818174)"
         id="use5125"
         xlink:href="#path5093"
         y="0"
         x="0" />
      <use
         style="fill:url(#linearGradient4496);stroke:url(#linearGradient4993);stroke-width:1.76388884;stroke-linecap:round;stroke-linejoin:round;stroke-miterlimit:4;stroke-dasharray:none;stroke-opacity:1"
         height="100%"
         width="100%"
         transform="matrix(0.7842904,0,0,0.7842904,23.130098,36.33728)"
         id="use5127"
         xlink:href="#path5093"
         y="0"
         x="0" />
      <use
         style="fill:url(#linearGradient4496);stroke:url(#linearGradient4995);stroke-width:1.76388884;stroke-linecap:round;stroke-linejoin:round;stroke-miterlimit:4;stroke-dasharray:none;stroke-opacity:1"
         height="100%"
         width="100%"
         transform="matrix(0.8112541,0,0,0.8112541,1.0172274,31.79512)"
         id="use5131"
         xlink:href="#path5093"
         y="0"
         x="0" />
      <use
         style="fill:url(#linearGradient4496);stroke:url(#linearGradient4997);stroke-opacity:1"
         height="100%"
         width="100%"
         transform="matrix(0.63599004,0,0,0.63599004,7.2203677,61.319162)"
         id="use5149"
         xlink:href="#path5093"
         y="0"
         x="0" />
      <use
         style="fill:url(#linearGradient4496);stroke:url(#linearGradient4999);stroke-opacity:1"
         height="100%"
         width="100%"
         transform="matrix(0.54161708,0,0,0.54161708,8.6295925,77.216723)"
         id="use5151"
         xlink:href="#path5093"
         y="0"
         x="0" />
      <use
         style="fill:url(#linearGradient4496);stroke:url(#linearGradient5001);stroke-opacity:1"
         height="100%"
         width="100%"
         transform="matrix(0.66295374,0,0,0.66295374,35.548244,56.777002)"
         id="use5153"
         xlink:href="#path5093"
         y="0"
         x="0" />
      <use
         style="fill:url(#linearGradient4496);stroke:url(#linearGradient5003);stroke-opacity:1"
         height="100%"
         width="100%"
         transform="matrix(0.57950219,0,0,0.57950219,45.034111,70.834801)"
         id="use5159"
         xlink:href="#path5093"
         y="0"
         x="0" />
      <use
         style="fill:url(#linearGradient4496);stroke:url(#linearGradient5005);stroke-opacity:1"
         height="100%"
         width="100%"
         transform="matrix(0.94919454,0,0,0.94919454,-2.53211,8.5584152)"
         id="use5171"
         xlink:href="#path5093"
         y="0"
         x="0" />
    </g>
    <g
       id="g4572"
       transform="matrix(0.59942941,0,0,0.59942941,12.318482,17.49683)">
      <g
         transform="translate(28.120986,10.672701)"
         id="layer1-2"
         inkscape:label="Layer 1">
        <path
           sodipodi:nodetypes="cccccccccccccccccccccc"
           inkscape:connector-curvature="0"
           id="path4485"
           d="m 81.05932,262.63126 c 18.81022,-2.2e-4 37.42202,0 37.42202,0 0,0 -16.03801,-27.45817 -16.03801,-45.36984 h 29.99703 51.67803 c 0,0 -30.28103,-59.25857 -59.40003,-65.43134 h 42.76802 c 0,0 -32.96702,-65.431347 -51.38104,-66.665901 h 29.40302 c 0,0 -56.72702,-87.9852098 -64.44902,-89.8370408 L 80.76233,151.22834 c 0,0 -1.43113,68.489 21.681,66.03308 m -7.142525,45.36984 c -18.81021,-2.2e-4 -51.785112,0 -51.785112,0 0,0 16.038003,-27.45817 16.038003,-45.36984 H 29.556671 -22.121366 c 0,0 30.2810347,-59.25857 59.400039,-65.43134 H -5.4893533 c 0,0 32.9670203,-65.431347 51.3810373,-66.665901 H 16.488665 c 0,0 56.727025,-87.9852098 64.449035,-89.8370408"
           style="fill:none;fill-opacity:1;fill-rule:evenodd;stroke:#315b0f;stroke-width:12;stroke-linecap:butt;stroke-linejoin:round;stroke-miterlimit:4;stroke-dasharray:none;stroke-opacity:1" />
        <path
           inkscape:connector-curvature="0"
           id="path4499"
           d="m 44.277452,262.14349 c 0,-0.0729 1.264557,-2.58171 2.810131,-5.57515 7.567602,-14.6568 12.686893,-29.91316 12.686893,-37.80909 v -1.84037 H 19.142035 c -22.3478403,0 -40.632441,-0.0719 -40.632441,-0.15987 0,-0.0879 1.078887,-2.08648 2.397526,-4.44123 7.714249,-13.77561 17.5507397,-28.16184 25.9270197,-37.91922 4.1972893,-4.88934 12.3806613,-12.63072 16.2806223,-15.40127 4.129767,-2.93381 9.569217,-5.73653 12.40268,-6.39057 1.076041,-0.24838 1.95644,-0.59248 1.95644,-0.76466 0,-0.17218 -9.525,-0.31306 -21.166667,-0.31306 -11.6416663,0 -21.1666663,-0.0974 -21.1666663,-0.21638 0,-0.39699 8.986157,-16.65011 12.138541,-21.95479 C 17.375923,112.36735 27.416966,98.573237 34.346102,92.173919 c 3.424928,-3.163052 7.56607,-5.83774 10.011214,-6.466062 1.814214,-0.466196 0.644538,-0.531151 -12.653113,-0.70267 L 17.052081,84.8162 24.900631,72.826212 C 45.143414,41.901932 63.7323,15.208257 73.01053,3.7403082 c 2.85047,-3.52320396 7.02099,-7.937472 7.49923,-7.937529 0.13331,-1.6e-5 0.2424,38.9079088 0.2424,86.4620518 0,80.872139 0.0444,86.889729 0.68661,93.076669 2.13535,20.57121 6.03394,33.10002 12.07862,38.81682 2.28364,2.15978 3.94747,2.99799 6.66701,3.35875 l 1.81239,0.24043 0.44495,3.62068 c 1.13997,9.2761 5.13928,20.611 12.19624,34.56674 l 3.20143,6.3311 H 81.05843 c -20.22954,0 -36.780978,-0.0596 -36.780978,-0.13253 z"
           style="fill:url(#linearGradient4574);fill-opacity:1;fill-rule:nonzero;stroke:url(#linearGradient4498);stroke-width:5.29199982;stroke-linejoin:round;stroke-miterlimit:4;stroke-dasharray:none;stroke-opacity:1" />
      </g>
      <g
         transform="translate(28.120986,10.672701)"
         inkscape:label="Layer 2"
         id="layer2" />
    </g>
    <use
       x="0"
       y="0"
       xlink:href="#layer1-7"
       id="use4945"
       transform="translate(77.863096,-59.720238)"
       width="100%"
       height="100%" />
  </g>
</svg>
