<?xml version="1.0" encoding="UTF-8" standalone="no"?>
<!-- Created with Inkscape (http://www.inkscape.org/) -->

<svg
   xmlns:osb="http://www.openswatchbook.org/uri/2009/osb"
   xmlns:dc="http://purl.org/dc/elements/1.1/"
   xmlns:cc="http://creativecommons.org/ns#"
   xmlns:rdf="http://www.w3.org/1999/02/22-rdf-syntax-ns#"
   xmlns:svg="http://www.w3.org/2000/svg"
   xmlns="http://www.w3.org/2000/svg"
   xmlns:xlink="http://www.w3.org/1999/xlink"
   xmlns:sodipodi="http://sodipodi.sourceforge.net/DTD/sodipodi-0.dtd"
   xmlns:inkscape="http://www.inkscape.org/namespaces/inkscape"
   width="204.52731mm"
   height="198.58362mm"
   viewBox="0 0 204.52731 198.58362"
   version="1.1"
   id="svg4544"
   inkscape:version="0.92.1 r15371"
   sodipodi:docname="evergreenhills.svg">
  <defs
     id="defs4538">
    <linearGradient
       osb:paint="solid"
       id="linearGradient4502"
       gradientTransform="matrix(1.5976272,0,0,1.5976272,-49.713807,374.21401)">
      <stop
         id="stop4500"
         offset="0"
         style="stop-color:#315b0f;stop-opacity:1;" />
    </linearGradient>
    <linearGradient
       id="linearGradient4496">
      <stop
         id="stop4494"
         offset="0"
         style="stop-color:#315b0f;stop-opacity:1;" />
    </linearGradient>
    <inkscape:path-effect
       oposite_fuse="false"
       fuse_paths="false"
       discard_orig_path="false"
       mode="vertical"
       is_visible="true"
       id="path-effect4487"
       center_point="105,148.5"
       end_point="105,297"
       start_point="105,0"
       effect="mirror_symmetry" />
    <inkscape:path-effect
       oposite_fuse="false"
       fuse_paths="false"
       discard_orig_path="false"
       mode="vertical"
       is_visible="true"
       id="path-effect4487-8"
       center_point="105,148.5"
       end_point="105,297"
       start_point="105,0"
       effect="mirror_symmetry" />
    <inkscape:path-effect
       oposite_fuse="false"
       fuse_paths="false"
       discard_orig_path="false"
       mode="vertical"
       is_visible="true"
       id="path-effect4487-9"
       center_point="105,148.5"
       end_point="105,297"
       start_point="105,0"
       effect="mirror_symmetry" />
    <inkscape:path-effect
       oposite_fuse="false"
       fuse_paths="false"
       discard_orig_path="false"
       mode="vertical"
       is_visible="true"
       id="path-effect4487-4"
       center_point="105,148.5"
       end_point="105,297"
       start_point="105,0"
       effect="mirror_symmetry" />
    <linearGradient
       gradientUnits="userSpaceOnUse"
       y2="129.0394"
       x2="120.48524"
       y1="129.0394"
       x1="-24.136406"
       id="linearGradient4498"
       xlink:href="#linearGradient4502"
       inkscape:collect="always" />
    <linearGradient
       inkscape:collect="always"
       xlink:href="#linearGradient4502"
       id="linearGradient5195"
       gradientUnits="userSpaceOnUse"
       x1="-24.136406"
       y1="129.0394"
       x2="120.48524"
       y2="129.0394" />
    <inkscape:path-effect
       oposite_fuse="false"
       fuse_paths="false"
       discard_orig_path="false"
       mode="vertical"
       is_visible="true"
       id="path-effect4487-6"
       center_point="105,148.5"
       end_point="105,297"
       start_point="105,0"
       effect="mirror_symmetry" />
  </defs>
  <sodipodi:namedview
     id="base"
     pagecolor="#ffffff"
     bordercolor="#666666"
     borderopacity="1.0"
     inkscape:pageopacity="0.0"
     inkscape:pageshadow="2"
     inkscape:zoom="0.7"
     inkscape:cx="149.15238"
     inkscape:cy="248.57673"
     inkscape:document-units="mm"
     inkscape:current-layer="layer1-2-3"
     showgrid="false"
     fit-margin-top="0"
     fit-margin-left="0"
     fit-margin-right="0"
     fit-margin-bottom="0"
     inkscape:window-width="1920"
     inkscape:window-height="1001"
     inkscape:window-x="-9"
     inkscape:window-y="-9"
     inkscape:window-maximized="1" />
  <metadata
     id="metadata4541">
    <rdf:RDF>
      <cc:Work
         rdf:about="">
        <dc:format>image/svg+xml</dc:format>
        <dc:type
           rdf:resource="http://purl.org/dc/dcmitype/StillImage" />
        <dc:title></dc:title>
      </cc:Work>
    </rdf:RDF>
  </metadata>
  <g
     inkscape:label="Layer 1"
     inkscape:groupmode="layer"
     id="layer1"
     transform="translate(-3.1155748,-91.697917)">
    <g
       transform="matrix(0.38230415,0,0,0.38230415,113.42769,84.962896)"
       id="layer1-2-3"
       inkscape:label="Layer 1">
      <g
         id="g5193"
         transform="matrix(1.2342752,0,0,1.2342752,-288.54543,17.616919)">
        <g
           transform="translate(28.120986,10.672701)"
           id="layer1-0"
           inkscape:label="Layer 1">
          <path
             sodipodi:nodetypes="cccccccccccccccccccccc"
             inkscape:connector-curvature="0"
             id="path4485"
             d="m 81.05932,262.63126 c 18.81022,-2.2e-4 37.42202,0 37.42202,0 0,0 -16.03801,-27.45817 -16.03801,-45.36984 h 29.99703 51.67803 c 0,0 -30.28103,-59.25857 -59.40003,-65.43134 h 42.76802 c 0,0 -32.96702,-65.431347 -51.38104,-66.665901 h 29.40302 c 0,0 -56.72702,-87.9852098 -64.44902,-89.8370408 L 80.76233,151.22834 c 0,0 -1.43113,68.489 21.681,66.03308 m -7.142525,45.36984 c -18.81021,-2.2e-4 -51.785112,0 -51.785112,0 0,0 16.038003,-27.45817 16.038003,-45.36984 H 29.556671 -22.121366 c 0,0 30.2810347,-59.25857 59.400039,-65.43134 H -5.4893533 c 0,0 32.9670203,-65.431347 51.3810373,-66.665901 H 16.488665 c 0,0 56.727025,-87.9852098 64.449035,-89.8370408"
             style="fill:none;fill-opacity:1;fill-rule:evenodd;stroke:#315b0f;stroke-width:12;stroke-linecap:butt;stroke-linejoin:round;stroke-miterlimit:4;stroke-dasharray:none;stroke-opacity:1" />
          <path
             inkscape:connector-curvature="0"
             id="path4499"
             d="m 44.277452,262.14349 c 0,-0.0729 1.264557,-2.58171 2.810131,-5.57515 7.567602,-14.6568 12.686893,-29.91316 12.686893,-37.80909 v -1.84037 H 19.142035 c -22.3478403,0 -40.632441,-0.0719 -40.632441,-0.15987 0,-0.0879 1.078887,-2.08648 2.397526,-4.44123 7.714249,-13.77561 17.5507397,-28.16184 25.9270197,-37.91922 4.1972893,-4.88934 12.3806613,-12.63072 16.2806223,-15.40127 4.129767,-2.93381 9.569217,-5.73653 12.40268,-6.39057 1.076041,-0.24838 1.95644,-0.59248 1.95644,-0.76466 0,-0.17218 -9.525,-0.31306 -21.166667,-0.31306 -11.6416663,0 -21.1666663,-0.0974 -21.1666663,-0.21638 0,-0.39699 8.986157,-16.65011 12.138541,-21.95479 C 17.375923,112.36735 27.416966,98.573237 34.346102,92.173919 c 3.424928,-3.163052 7.56607,-5.83774 10.011214,-6.466062 1.814214,-0.466196 0.644538,-0.531151 -12.653113,-0.70267 L 17.052081,84.8162 24.900631,72.826212 C 45.143414,41.901932 63.7323,15.208257 73.01053,3.7403082 c 2.85047,-3.52320396 7.02099,-7.937472 7.49923,-7.937529 0.13331,-1.6e-5 0.2424,38.9079088 0.2424,86.4620518 0,80.872139 0.0444,86.889729 0.68661,93.076669 2.13535,20.57121 6.03394,33.10002 12.07862,38.81682 2.28364,2.15978 3.94747,2.99799 6.66701,3.35875 l 1.81239,0.24043 0.44495,3.62068 c 1.13997,9.2761 5.13928,20.611 12.19624,34.56674 l 3.20143,6.3311 H 81.05843 c -20.22954,0 -36.780978,-0.0596 -36.780978,-0.13253 z"
             style="fill:url(#linearGradient5195);fill-opacity:1;fill-rule:nonzero;stroke:url(#linearGradient4498);stroke-width:5.29199982;stroke-linejoin:round;stroke-miterlimit:4;stroke-dasharray:none;stroke-opacity:1" />
        </g>
        <g
           transform="translate(28.120986,10.672701)"
           inkscape:label="Layer 2"
           id="layer2" />
      </g>
      <g
         transform="matrix(2.6157184,0,0,2.6157184,-160.88146,90.615372)"
         id="layer1-5"
         inkscape:label="Layer 1">
        <path
           sodipodi:nodetypes="cccccsc"
           inkscape:connector-curvature="0"
           id="path4536"
           d="m -44.366742,137.4401 23.519718,30.73599 c 19.243406,-13.00712 35.071195,-33.98401 57.730218,-39.02135 6.310285,-1.89309 60.006677,37.64353 72.430046,37.68502 1.1828,1.23083 22.22438,1.60596 36.34865,-0.53455 0,0 -109.580504,-54.52299 -108.778695,-57.46296 0.801808,-2.93996 -47.841247,28.33058 -81.249937,28.59785 z"
           style="fill:url(#linearGradient4502);fill-rule:evenodd;stroke:url(#linearGradient4502);stroke-width:5;stroke-linecap:round;stroke-linejoin:round;stroke-miterlimit:4;stroke-dasharray:none;stroke-opacity:1" />
      </g>
      <g
         transform="matrix(1.3908598,0,0,1.3908598,40.368799,143.45803)"
         id="layer1-5-9"
         inkscape:label="Layer 1"
         inkscape:transform-center-x="15.073552"
         inkscape:transform-center-y="19.105396">
        <path
           sodipodi:nodetypes="cccccsc"
           inkscape:connector-curvature="0"
           id="path4536-5"
           d="m -44.366742,137.4401 23.519718,30.73599 c 19.243406,-13.00712 35.071195,-33.98401 57.730218,-39.02135 6.310285,-1.89309 60.006677,37.64353 72.430046,37.68502 1.1828,1.23083 22.22438,1.60596 36.34865,-0.53455 0,0 -109.580504,-54.52299 -108.778695,-57.46296 0.801808,-2.93996 -47.841247,28.33058 -81.249937,28.59785 z"
           style="fill:url(#linearGradient4502);fill-rule:evenodd;stroke:url(#linearGradient4502);stroke-width:5;stroke-linecap:round;stroke-linejoin:round;stroke-miterlimit:4;stroke-dasharray:none;stroke-opacity:1" />
      </g>
    </g>
  </g>
</svg>
