<?xml version="1.0" encoding="UTF-8" standalone="no"?>
<!-- Created with Inkscape (http://www.inkscape.org/) -->

<svg
   xmlns:osb="http://www.openswatchbook.org/uri/2009/osb"
   xmlns:dc="http://purl.org/dc/elements/1.1/"
   xmlns:cc="http://creativecommons.org/ns#"
   xmlns:rdf="http://www.w3.org/1999/02/22-rdf-syntax-ns#"
   xmlns:svg="http://www.w3.org/2000/svg"
   xmlns="http://www.w3.org/2000/svg"
   xmlns:sodipodi="http://sodipodi.sourceforge.net/DTD/sodipodi-0.dtd"
   xmlns:inkscape="http://www.inkscape.org/namespaces/inkscape"
   width="85.673706mm"
   height="71.915436mm"
   viewBox="0 0 85.673706 71.915436"
   version="1.1"
   id="svg8"
   sodipodi:docname="house.svg"
   inkscape:version="0.92.1 r15371">
  <defs
     id="defs2">
    <linearGradient
       id="linearGradient4499"
       osb:paint="solid">
      <stop
         style="stop-color:#000000;stop-opacity:1;"
         offset="0"
         id="stop4497" />
    </linearGradient>
  </defs>
  <sodipodi:namedview
     id="base"
     pagecolor="#ffffff"
     bordercolor="#666666"
     borderopacity="1.0"
     inkscape:pageopacity="0.0"
     inkscape:pageshadow="2"
     inkscape:zoom="0.98994949"
     inkscape:cx="-151.58493"
     inkscape:cy="298.83224"
     inkscape:document-units="mm"
     inkscape:current-layer="layer1"
     showgrid="false"
     inkscape:window-width="1920"
     inkscape:window-height="1137"
     inkscape:window-x="-8"
     inkscape:window-y="-8"
     inkscape:window-maximized="1"
     fit-margin-top="0"
     fit-margin-left="0"
     fit-margin-right="0"
     fit-margin-bottom="0">
    <inkscape:grid
       type="xygrid"
       id="grid4485"
       originx="-41.833418"
       originy="-78.867877" />
  </sodipodi:namedview>
  <metadata
     id="metadata5">
    <rdf:RDF>
      <cc:Work
         rdf:about="">
        <dc:format>image/svg+xml</dc:format>
        <dc:type
           rdf:resource="http://purl.org/dc/dcmitype/StillImage" />
        <dc:title></dc:title>
      </cc:Work>
    </rdf:RDF>
  </metadata>
  <g
     inkscape:label="Layer 1"
     inkscape:groupmode="layer"
     id="layer1"
     transform="translate(-41.833416,-146.21669)">
    <path
       style="opacity:1;vector-effect:none;fill:none;fill-opacity:1;fill-rule:nonzero;stroke:#000000;stroke-width:1;stroke-linecap:round;stroke-linejoin:round;stroke-miterlimit:4;stroke-dasharray:none;stroke-dashoffset:0;stroke-opacity:1"
       d="M 127,183.75833 H 111.125 V 217.625 H 100.54167 V 196.45833 H 89.958332 V 217.625 m 0,0 H 58.208333 v -33.86667 h -15.875 L 84.666667,146.71667 127,183.75833"
       id="path4487"
       inkscape:connector-curvature="0"
       sodipodi:nodetypes="ccccccccccccc" />
    <path
       style="opacity:1;vector-effect:none;fill:none;fill-opacity:1;stroke:#000000;stroke-width:1;stroke-linecap:round;stroke-linejoin:round;stroke-miterlimit:4;stroke-dasharray:none;stroke-dashoffset:0;stroke-opacity:1"
       d="M 68.791666,191.16667 H 79.374999 V 201.75 H 68.791666 Z"
       id="path4489"
       inkscape:connector-curvature="0" />
    <path
       style="opacity:1;vector-effect:none;fill:#000000;fill-opacity:1;stroke:#000000;stroke-width:0.78454453;stroke-linecap:round;stroke-linejoin:round;stroke-miterlimit:4;stroke-dasharray:none;stroke-dashoffset:0;stroke-opacity:1"
       d="m 100.74496,164.40035 v -13.30688 h 7.77132 v 22.17813"
       id="path4493"
       inkscape:connector-curvature="0" />
    <path
       style="fill:#000000;fill-opacity:1;fill-rule:nonzero;stroke:#000000;stroke-width:3.81789947;stroke-linecap:round;stroke-linejoin:round;stroke-miterlimit:4;stroke-dasharray:none;stroke-opacity:1"
       d="m 63.981627,215.80995 v -64.1287 L 36.339273,151.41273 8.6969191,151.14421 76.806043,91.545209 C 114.26606,58.765759 148.74244,28.614812 153.42021,24.543104 l 8.50505,-7.403106 29.29697,25.585851 29.29697,25.585852 0.018,6.851081 c 0.0153,5.810311 0.31147,6.961228 1.94956,7.576144 2.44233,0.916805 26.20367,27.980634 27.4543,31.270044 1.8282,4.80851 3.42787,1.90264 3.94921,-7.1739 l 0.50508,-8.793357 30.62543,26.803787 30.62549,26.80379 h -27.84752 -27.84751 v 64.14468 64.14469 H 242.27357 224.5959 v -39.19392 c 0,-29.13728 -0.31102,-39.50494 -1.21218,-40.4061 -1.71333,-1.71333 -41.31917,-1.71333 -43.0325,0 -0.90116,0.90116 -1.21218,11.26882 -1.21218,40.4061 v 39.19392 h -57.5787 -57.578693 z m 79.569273,-13.92533 0.27228,-21.99057 -21.99056,0.27229 -21.990578,0.27229 -0.274172,20.68086 c -0.150793,11.37447 -0.04793,21.2704 0.228572,21.99098 0.394718,1.02863 5.120038,1.25153 21.992448,1.03742 l 21.48971,-0.2727 z"
       id="path4505"
       inkscape:connector-curvature="0"
       transform="matrix(0.26458333,0,0,0.26458333,41.833416,143.04169)" />
  </g>
</svg>
